HIERARCHY
ROOT Hips
{
  OFFSET -102.467 93.6631 130.069
  CHANNELS 6 Xposition Yposition Zposition Zrotation Xrotation Yrotation
  JOINT LeftUpLeg
  {
    OFFSET 8.64259 1.95398 -2.38835
    CHANNELS 3 Zrotation Xrotation Yrotation
    JOINT LeftLeg
    {
      OFFSET 43.7702 0 0
      CHANNELS 3 Zrotation Xrotation Yrotation
      JOINT LeftFoot
      {
        OFFSET 40.6238 0 0
        CHANNELS 3 Zrotation Xrotation Yrotation
        JOINT LeftToeBase
        {
          OFFSET 12.7242 0 0
          CHANNELS 3 Zrotation Xrotation Yrotation
          End Site
          {
            OFFSET 0 0 0
          }
        }
      }
    }
  }
  JOINT RightUpLeg
  {
    OFFSET -8.2249 1.95398 -2.59336
    CHANNELS 3 Zrotation Xrotation Yrotation
    JOINT RightLeg
    {
      OFFSET 43.5653 0 0
      CHANNELS 3 Zrotation Xrotation Yrotation
      JOINT RightFoot
      {
        OFFSET 40.6238 0 0
        CHANNELS 3 Zrotation Xrotation Yrotation
        JOINT RightToeBase
        {
          OFFSET 12.7242 0 0
          CHANNELS 3 Zrotation Xrotation Yrotation
          End Site
          {
            OFFSET 0 0 0
          }
        }
      }
    }
  }
  JOINT Spine
  {
    OFFSET 0.165834 0.87714 6.61349
    CHANNELS 3 Zrotation Xrotation Yrotation
    JOINT Spine1
    {
      OFFSET 7.38963 1.71661e-005 0
      CHANNELS 3 Zrotation Xrotation Yrotation
      JOINT Spine2
      {
        OFFSET 11.9445 1.14441e-005 0
        CHANNELS 3 Zrotation Xrotation Yrotation
        JOINT Spine3
        {
          OFFSET 14.7254 4.19617e-005 0
          CHANNELS 3 Zrotation Xrotation Yrotation
          JOINT Spine4
          {
            OFFSET 10.9679 0 0
            CHANNELS 3 Zrotation Xrotation Yrotation
            JOINT RightShoulder
            {
              OFFSET 2.46616 -1.6653 3.69651
              CHANNELS 3 Zrotation Xrotation Yrotation
              JOINT RightArm
              {
                OFFSET 13.0012 0 0
                CHANNELS 3 Zrotation Xrotation Yrotation
                JOINT RightForeArm
                {
                  OFFSET 28.7848 1.52588e-005 0
                  CHANNELS 3 Zrotation Xrotation Yrotation
                  JOINT RightHand
                  {
                    OFFSET 26.5688 1.52588e-005 0
                    CHANNELS 3 Zrotation Xrotation Yrotation
                    End Site
                    {
                      OFFSET 0 0 0
                    }
                  }
                }
              }
            }
            JOINT LeftShoulder
            {
              OFFSET 2.38034 -1.29275 -3.7523
              CHANNELS 3 Zrotation Xrotation Yrotation
              JOINT LeftArm
              {
                OFFSET 16.3182 6.10351e-005 0
                CHANNELS 3 Zrotation Xrotation Yrotation
                JOINT LeftForeArm
                {
                  OFFSET 27.0901 0 0
                  CHANNELS 3 Zrotation Xrotation Yrotation
                  JOINT LeftHand
                  {
                    OFFSET 24.5451 1.52588e-005 0
                    CHANNELS 3 Zrotation Xrotation Yrotation
                    End Site
                    {
                      OFFSET 0 0 0
                    }
                  }
                }
              }
            }
            JOINT Neck
            {
              OFFSET 5.0226 -0.0266342 0
              CHANNELS 3 Zrotation Xrotation Yrotation
              JOINT Head
              {
                OFFSET 6.69363 2.86102e-005 0
                CHANNELS 3 Zrotation Xrotation Yrotation
                End Site
                {
                  OFFSET 0 0 0
                }
              }
            }
          }
        }
      }
    }
  }
}
MOTION
Frames:	9
Frame Time:	0.0416667
-140.925 93.2583 128.6 99.3703 53.6541 88.4926 177.479 4.26877 94.2426 -59.5358 11.9958 7.20437 50.1304 -1.67224 3.33785 61.5966 -2.12491 5.01641 174.996 19.4893 91.4718 -33.7675 -4.08068 2.89495 64.8167 6.52495 12.1445 20.3862 2.19029 2.6672 -0.387901 7.57058 -91.3842 11.7092 -1.42103 -2.61005 0.0365508 -1.53446 -2.54504 -22.4791 -0.571285 -2.9162 -2.4664 -0.571283 -2.91619 100.324 -50.373 -85.029 28.793 -8.25205 -0.336056 -1.89801 -8.42351 -14.0233 -10.76 -0.755645 3.10287 -83.5192 -53.0057 88.5448 -29.7976 7.80578 -13.2629 9.84052 28.0996 -20.8402 -8.39059 -0.110243 -3.99476 6.9622 0.864612 2.87294 -20.3515 -0.46597 5.17245 
-134.525 94.3389 123.291 100.606 51.1251 84.9277 178.941 13.5458 89.2846 -61.4819 7.49743 4.52548 55.4311 2.89827 6.53882 57.0832 -1.20672 6.74733 175.685 13.9742 90.7081 -35.5395 -4.47496 0.926939 70.1194 4.76743 12.5163 21.6421 2.00999 3.57056 0.00368251 7.70562 -91.0636 11.4528 -0.489293 -2.0701 -0.219601 -0.579926 -2.04659 -22.7416 0.155321 -2.12146 -2.72896 0.155328 -2.12145 100.322 -49.7449 -85.0542 26.787 -8.7981 -3.97772 -2.53766 -6.85002 -19.2007 -14.6599 -1.00276 2.84424 -84.0038 -52.3636 87.7679 -30.1069 9.5455 -9.76308 9.26746 33.5514 -19.6749 -11.1943 -0.188699 -3.09094 6.09017 -0.174758 1.25867 -18.9237 -0.857508 3.38128 
-128.514 95.4595 118.067 100.066 50.9905 83.6769 179.717 18.9974 86.7965 -45.805 7.43996 2.76262 57.9031 4.45482 6.66323 56.6926 0.140735 10.8971 175.197 7.13865 89.0072 -31.9262 -4.25563 0.428012 72.5132 3.72225 12.3868 23.6505 1.68097 4.20728 0.18829 7.53621 -90.8122 11.799 -0.00738124 -1.61947 0.127078 -0.0786349 -1.61759 -22.4005 0.479629 -1.54686 -2.38788 0.479612 -1.54686 101.648 -48.1648 -82.9891 25.818 -10.5182 -6.96981 -2.89681 -4.95581 -23.7198 -14.4093 -0.750266 0.838698 -83.8677 -52.5541 87.9869 -29.8995 9.4619 -4.46279 8.87875 33.7634 -19.7561 -9.6304 -0.215179 -2.38588 4.00375 -1.10819 1.35906 -18.2808 -1.53306 1.61203 
-122.535 95.815 112.699 98.7527 49.7291 83.7743 179.29 16.3995 86.5241 -13.626 8.53333 1.30858 51.4634 0.896103 5.91457 47.0798 0.125679 9.9918 174.959 0.360325 90.5662 -28.4675 -2.67833 -0.381845 74.293 3.52393 14.5405 24.1124 1.94899 7.27958 0.474725 7.30835 -90.6094 12.2597 0.654612 -1.29056 0.588241 0.597191 -1.31812 -21.9447 1.0122 -1.03419 -1.93203 1.0122 -1.03419 103.063 -46.4397 -80.6989 25.5518 -11.5994 -9.08644 -4.78334 -6.05397 -27.1282 -11.0758 -0.469123 -0.274084 -82.1542 -51.5104 90.4368 -31.7195 6.82668 -0.785544 9.05842 33.4157 -18.4825 -8.9159 -0.214377 -2.21337 3.44428 -1.48689 1.56217 -18.829 -1.83833 0.767611 
-116.384 95.3742 106.705 98.7058 47.3893 85.6111 -179.966 19.6711 88.0679 -6.88869 10.8764 2.42919 57.6448 -0.983354 1.411 44.2932 -0.0690261 8.59079 174.872 -5.20133 90.328 -26.5587 -3.15761 -0.516186 71.9881 4.21839 17.0473 31.2646 1.10215 9.23131 0.886563 7.14867 -90.7164 12.5852 1.41991 -1.59667 0.913962 1.34827 -1.65762 -21.6232 1.83408 -1.09612 -1.6105 1.83411 -1.09612 103.813 -45.2088 -79.4296 26.9384 -10.5403 -9.40923 -5.54581 -6.5197 -28.0759 -10.4588 -0.398771 -0.778888 -81.9873 -53.1089 90.798 -30.5407 2.72482 0.793189 8.47367 32.957 -15.104 -9.49584 -0.151394 -3.392 1.41549 -1.37231 2.76183 -18.652 -1.68439 -0.767779 
-109.482 94.2323 99.287 99.3978 46.7952 84.6349 -179.991 18.3089 87.0531 -10.9694 12.1206 2.11167 53.9189 -0.904685 5.60163 42.6584 0.11032 9.10639 173.85 -9.02089 88.2708 -29.7564 -7.87275 -1.00469 64.7677 6.50644 18.6177 43.289 0.452803 13.0886 0.914024 7.09204 -90.4294 12.6975 1.61037 -1.04843 1.02708 1.56264 -1.11829 -21.515 1.85097 -0.515868 -1.50235 1.851 -0.515865 104.213 -46.4095 -78.8199 28.0271 -10.1797 -8.196 -4.53603 -6.247 -25.3965 -10.9706 -0.437103 -0.570303 -80.417 -51.8384 93.0418 -31.6804 0.329368 0.118748 8.19517 32.2916 -12.6799 -10.2249 -0.222143 -2.44509 2.25368 -1.42937 0.075961 -19.9574 -1.58099 1.0768 
-102.503 93.3052 91.8671 100.989 47.1204 82.4269 -179.229 20.2116 85.6069 -27.3848 15.0283 2.03219 55.5995 -0.816941 10.3963 39.3911 -0.707015 3.30819 172.048 -7.69952 83.3934 -37.8814 -11.8766 -1.04276 45.1907 12.6367 21.082 32.3284 2.94664 19.1502 0.707239 7.12645 -90.0367 12.6255 1.3876 -0.234165 0.95526 1.37594 -0.295019 -21.5859 1.39378 0.193767 -1.5733 1.39381 0.193772 104.375 -47.0324 -78.5844 30.6141 -9.98471 -6.27817 -3.36337 -7.96836 -18.7138 -9.01477 -0.400492 0.0121009 -80.7347 -50.8164 92.5148 -31.8126 0.630052 -0.758502 8.17297 31.9185 -12.8007 -9.92392 -0.228388 -2.30184 3.67021 -0.982136 -2.36822 -20.9391 -0.834615 1.85851 
-96.1852 93.5387 85.4451 103.343 47.7714 79.5682 -177.867 15.7591 84.4909 -34.0821 16.8945 1.67938 62.2376 3.6615 13.4131 37.1459 -0.715282 1.85763 172.685 3.85558 88.4816 -57.8127 -17.4379 -1.53048 37.0118 15.1137 17.3362 13.7689 3.70034 9.25725 0.300001 7.39723 -89.7573 12.0771 0.711051 0.406255 0.406281 0.728269 0.374556 -22.1294 0.556075 0.601177 -2.11674 0.556086 0.601179 103.866 -47.2158 -79.4157 32.7514 -10.1343 -4.57125 -2.8704 -9.97723 -14.6282 -6.04989 -0.26224 -0.167175 -81.4281 -51.1069 91.4928 -30.0385 2.60261 -5.82907 7.94301 33.0402 -13.1126 -8.57482 -0.241744 -1.53885 4.34185 0.354975 -2.43933 -19.7173 0.389386 2.86761 
-89.9879 94.992 78.7681 104.244 50.4613 80.3771 -177.424 8.45863 86.2714 -32.5627 19.3332 2.85819 65.4318 6.42536 13.9742 38.5339 -0.842064 1.9327 172.044 15.3999 87.6604 -64.8658 -15.5115 -0.466298 44.8879 11.5857 14.4676 20.6712 2.62282 8.43306 -0.125516 7.47309 -89.9491 11.9278 -0.225541 0.12582 0.256873 -0.21979 0.135612 -22.2784 -0.252912 0.0522193 -2.26578 -0.252927 0.0522068 103.65 -47.3032 -79.7672 33.6532 -11.395 -1.62755 -2.13212 -10.2411 -13.3218 -5.38265 -0.259041 0.472282 -81.145 -50.4967 91.8805 -28.9566 4.7583 -14.3927 7.2784 34.1999 -12.2228 -7.93664 -0.241519 -1.2633 2.73756 1.45583 -1.30338 -19.091 1.18699 3.54775 
